<svg width="22" height="20" viewBox="0 0 22 20" fill="none" xmlns="http://www.w3.org/2000/svg">
<g clip-path="url(#clip0_129_82)">
<path d="M4.26778 1.75L4.1335 1.46023C3.86429 0.879334 3.29182 0.5 2.65451 0.5H0.916667C0.695356 0.5 0.5 0.683459 0.5 0.9375C0.5 1.19154 0.695356 1.375 0.916667 1.375H2.65451C3.04691 1.375 3.37804 1.65491 3.448 2.03847C3.44811 2.03907 3.44822 2.03967 3.44833 2.04027L5.41864 12.6233L5.41878 12.6241C5.62077 13.7183 6.55423 14.5 7.62743 14.5H18.6389C18.8602 14.5 19.0556 14.3165 19.0556 14.0625C19.0556 13.8085 18.8602 13.625 18.6389 13.625H7.62743C6.93897 13.625 6.36206 13.125 6.23486 12.4568L6.2344 12.4544L6.02816 11.3411L5.91865 10.75H6.51979H17.5389C18.5453 10.75 19.441 10.0552 19.7099 9.04069L4.26778 1.75ZM4.26778 1.75H4.58715H20.2851C20.9478 1.75 21.4589 2.40237 21.2761 3.09039L21.2758 3.09147L19.71 9.04003L4.26778 1.75ZM5.38889 18.125C5.38889 17.9429 5.42397 17.7628 5.49188 17.5952C5.55977 17.4275 5.659 17.2759 5.78336 17.1487C5.9077 17.0216 6.0547 16.9213 6.21567 16.8531C6.37661 16.7849 6.54871 16.75 6.72222 16.75C6.89574 16.75 7.06783 16.7849 7.22878 16.8531C7.38974 16.9213 7.53674 17.0216 7.66108 17.1487C7.78544 17.2759 7.88467 17.4275 7.95257 17.5952C8.02047 17.7628 8.05556 17.9429 8.05556 18.125C8.05556 18.3071 8.02047 18.4872 7.95257 18.6548C7.88467 18.8225 7.78544 18.9741 7.66108 19.1013C7.53674 19.2284 7.38974 19.3287 7.22877 19.3969C7.06783 19.4651 6.89574 19.5 6.72222 19.5C6.54871 19.5 6.37661 19.4651 6.21567 19.3969C6.0547 19.3287 5.9077 19.2284 5.78336 19.1013C5.659 18.9741 5.55977 18.8225 5.49188 18.6548C5.42397 18.4872 5.38889 18.3071 5.38889 18.125ZM17.7222 16.75C18.0722 16.75 18.4101 16.8921 18.6611 17.1487C18.9124 17.4058 19.0556 17.7567 19.0556 18.125C19.0556 18.4933 18.9124 18.8442 18.6611 19.1013C18.4101 19.3579 18.0722 19.5 17.7222 19.5C17.3723 19.5 17.0343 19.3579 16.7834 19.1013C16.532 18.8442 16.3889 18.4933 16.3889 18.125C16.3889 17.7567 16.532 17.4058 16.7834 17.1487C17.0343 16.8921 17.3723 16.75 17.7222 16.75Z" fill="#ECFEEB" stroke="#39C861"/>
</g>
<defs>
<clipPath id="clip0_129_82">
<rect width="22" height="20" fill="white"/>
</clipPath>
</defs>
</svg>
