<svg width="24" height="25" viewBox="0 0 24 25" fill="none" xmlns="http://www.w3.org/2000/svg">
<g clip-path="url(#clip0_96_176)">
<path d="M12.0055 6.88477C8.59833 6.88477 5.85011 9.38965 5.85011 12.4951C5.85011 15.6006 8.59833 18.1055 12.0055 18.1055C15.4126 18.1055 18.1608 15.6006 18.1608 12.4951C18.1608 9.38965 15.4126 6.88477 12.0055 6.88477ZM12.0055 16.1426C9.80368 16.1426 8.00368 14.5068 8.00368 12.4951C8.00368 10.4834 9.79833 8.84766 12.0055 8.84766C14.2126 8.84766 16.0073 10.4834 16.0073 12.4951C16.0073 14.5068 14.2073 16.1426 12.0055 16.1426ZM19.8483 6.65527C19.8483 7.38281 19.2055 7.96387 18.4126 7.96387C17.6144 7.96387 16.9769 7.37793 16.9769 6.65527C16.9769 5.93262 17.6198 5.34668 18.4126 5.34668C19.2055 5.34668 19.8483 5.93262 19.8483 6.65527ZM23.9251 7.9834C23.834 6.23047 23.3948 4.67773 21.9858 3.39844C20.5823 2.11914 18.8787 1.71875 16.9555 1.63086C14.9733 1.52832 9.03226 1.52832 7.05011 1.63086C5.13225 1.71387 3.42868 2.11426 2.01975 3.39355C0.610826 4.67285 0.176897 6.22559 0.0804687 7.97852C-0.0320312 9.78516 -0.0320312 15.2002 0.0804687 17.0068C0.17154 18.7598 0.610826 20.3125 2.01975 21.5918C3.42868 22.8711 5.1269 23.2715 7.05011 23.3594C9.03226 23.4619 14.9733 23.4619 16.9555 23.3594C18.8787 23.2764 20.5823 22.876 21.9858 21.5918C23.3894 20.3125 23.8287 18.7598 23.9251 17.0068C24.0376 15.2002 24.0376 9.79004 23.9251 7.9834ZM21.3644 18.9453C20.9465 19.9023 20.1376 20.6396 19.0823 21.0254C17.5019 21.5967 13.7519 21.4648 12.0055 21.4648C10.259 21.4648 6.50368 21.5918 4.92868 21.0254C3.87868 20.6445 3.06975 19.9072 2.64654 18.9453C2.01975 17.5049 2.1644 14.0869 2.1644 12.4951C2.1644 10.9033 2.02511 7.48047 2.64654 6.04492C3.0644 5.08789 3.87333 4.35059 4.92868 3.96484C6.50904 3.39355 10.259 3.52539 12.0055 3.52539C13.7519 3.52539 17.5073 3.39844 19.0823 3.96484C20.1323 4.3457 20.9412 5.08301 21.3644 6.04492C21.9912 7.48535 21.8465 10.9033 21.8465 12.4951C21.8465 14.0869 21.9912 17.5098 21.3644 18.9453Z" fill="black"/>
</g>
<defs>
<clipPath id="clip0_96_176">
<rect width="24" height="25" fill="white"/>
</clipPath>
</defs>
</svg>
