<svg width="33" height="25" viewBox="0 0 33 25" fill="none" xmlns="http://www.w3.org/2000/svg">
<path d="M26.5701 6.05874C26.2664 4.90396 25.3719 3.99448 24.236 3.68584C22.1772 3.125 13.9217 3.125 13.9217 3.125C13.9217 3.125 5.66622 3.125 3.60737 3.68584C2.47153 3.99453 1.57696 4.90396 1.27333 6.05874C0.72168 8.15186 0.72168 12.5189 0.72168 12.5189C0.72168 12.5189 0.72168 16.886 1.27333 18.9791C1.57696 20.1339 2.47153 21.0055 3.60737 21.3142C5.66622 21.875 13.9217 21.875 13.9217 21.875C13.9217 21.875 22.1772 21.875 24.236 21.3142C25.3719 21.0055 26.2664 20.1339 26.5701 18.9791C27.1217 16.886 27.1217 12.5189 27.1217 12.5189C27.1217 12.5189 27.1217 8.15186 26.5701 6.05874ZM11.2217 16.4839V8.55396L18.1217 12.519L11.2217 16.4839Z" fill="black"/>
</svg>
